<svg width="128" height="128" viewBox="0 0 128 128" fill="none" xmlns="http://www.w3.org/2000/svg">
<g clip-path="url(#clip0_1_281)">
<path d="M96.7968 35.1699C96.7146 35.1015 96.605 35.0706 96.4989 35.0912L95.8551 35.2076C95.8483 35.2076 95.3312 35.3001 94.5642 35.3001C88.4657 35.3001 87.3015 30.4309 87.1508 27.5271L87.1234 27.0135C87.1132 26.8217 86.9557 26.6711 86.7639 26.6711H41.2358C41.044 26.6711 40.8865 26.8217 40.8762 27.0135L40.8488 27.5271C40.6982 30.4309 39.5339 35.3001 33.4354 35.3001C32.6684 35.3001 32.1514 35.2076 32.148 35.2076L31.5008 35.0878C31.3946 35.0672 31.2851 35.098 31.2029 35.1665C31.1207 35.235 31.0728 35.3377 31.0728 35.4473L31.0796 36.1184C31.0864 36.7656 31.244 52.1505 31.6377 67.4225C32.4664 99.3565 33.5142 100.699 33.9628 101.271C36.1474 104.068 56.5385 116.591 63.1849 117.649C63.2465 117.697 63.3253 117.724 63.4074 117.724H64.0443C64.0443 117.724 64.0443 117.724 64.0478 117.724L64.5888 117.72C64.671 117.72 64.7429 117.693 64.8045 117.649C71.4475 116.594 91.8454 104.068 94.0335 101.271C94.482 100.699 95.5298 99.3599 96.3585 67.4225C96.7626 51.8252 96.9166 36.2554 96.9166 36.1047L96.9235 35.4507C96.9235 35.3446 96.879 35.2418 96.7968 35.1699Z" fill="#C09F74"/>
<path d="M94.4135 38.3305C94.28 38.3305 94.1738 38.2209 94.1738 38.0874V37.9778C94.1361 37.9744 94.0985 37.9744 94.0608 37.9709C93.9273 37.9641 93.828 37.8511 93.8348 37.7175C93.8417 37.584 93.9547 37.4847 94.0882 37.4915C94.1978 37.4984 94.3108 37.5018 94.4238 37.5052C94.5539 37.5087 94.6566 37.6182 94.6566 37.7484L94.6532 38.0908C94.6532 38.2243 94.5436 38.3305 94.4135 38.3305Z" fill="#394259"/>
<path d="M92.7288 37.8271C92.7151 37.8271 92.7014 37.8271 92.6877 37.8237C92.4583 37.786 92.2323 37.7415 92.0097 37.6901C91.8796 37.6593 91.8008 37.5326 91.8282 37.4025C91.859 37.2724 91.9857 37.1936 92.1158 37.221C92.3281 37.2689 92.5439 37.3135 92.7664 37.3477C92.8966 37.3682 92.9856 37.4915 92.965 37.6251C92.9445 37.7449 92.8418 37.8271 92.7288 37.8271ZM90.7667 37.3066C90.7393 37.3066 90.7085 37.3032 90.6811 37.2929C90.4654 37.2107 90.2497 37.1217 90.0408 37.0258C89.9209 36.971 89.8696 36.8272 89.9244 36.7074C89.9791 36.5875 90.123 36.5362 90.2428 36.591C90.4414 36.6834 90.6434 36.769 90.8523 36.8443C90.9756 36.8923 91.0372 37.0293 90.9927 37.1525C90.955 37.2484 90.8626 37.3066 90.7667 37.3066ZM88.9587 36.3889C88.9142 36.3889 88.8663 36.3752 88.8252 36.3478C88.6334 36.2211 88.4417 36.0842 88.2602 35.9404C88.1575 35.8582 88.1369 35.7075 88.2191 35.6048C88.3013 35.5021 88.452 35.4815 88.5547 35.5637C88.7259 35.6972 88.9074 35.8274 89.0889 35.9472C89.1984 36.0191 89.2292 36.1698 89.1573 36.2794C89.1128 36.3478 89.0375 36.3889 88.9587 36.3889ZM87.411 35.0775C87.3459 35.0775 87.2843 35.0501 87.2364 35.0021C87.0788 34.8343 86.9282 34.6563 86.7809 34.4748C86.6988 34.3721 86.7159 34.2214 86.8186 34.1392C86.9213 34.057 87.072 34.0742 87.1542 34.1769C87.2911 34.3481 87.4384 34.5159 87.5856 34.6768C87.6747 34.7727 87.6712 34.9268 87.5754 35.0158C87.5274 35.0569 87.4692 35.0775 87.411 35.0775ZM86.2057 33.4475C86.1235 33.4475 86.0447 33.4064 86.0002 33.3277C85.8872 33.1325 85.7742 32.9271 85.6715 32.7182C85.6133 32.5983 85.6612 32.4545 85.7777 32.3963C85.8975 32.3381 86.0413 32.386 86.0995 32.5025C86.1988 32.7011 86.305 32.8962 86.4146 33.0846C86.483 33.1976 86.4419 33.3448 86.3289 33.4133C86.2879 33.4373 86.2468 33.4475 86.2057 33.4475ZM85.3531 31.6053C85.2538 31.6053 85.1613 31.5437 85.1271 31.4444C85.0517 31.2287 84.9798 31.0095 84.9148 30.7869C84.8771 30.6602 84.9524 30.5267 85.0791 30.489C85.2058 30.4514 85.3394 30.5267 85.377 30.6534C85.4387 30.8691 85.5071 31.078 85.579 31.2869C85.6236 31.4101 85.5585 31.5471 85.4318 31.5916C85.4078 31.6019 85.3804 31.6053 85.3531 31.6053Z" fill="#394259"/>
<path d="M84.8327 29.6364C84.7197 29.6364 84.617 29.5542 84.5964 29.4413C84.5862 29.3933 84.5793 29.3488 84.5725 29.3009H84.4321C84.2985 29.3009 84.1924 29.1947 84.1924 29.0612C84.1924 28.9276 84.2985 28.8215 84.4321 28.8215H84.7745C84.8909 28.8215 84.9937 28.9071 85.0108 29.0235C85.0279 29.1365 85.0484 29.2461 85.069 29.3556C85.093 29.4858 85.0073 29.6125 84.8772 29.633C84.8635 29.633 84.8498 29.6364 84.8327 29.6364Z" fill="#394259"/>
<path d="M83.0487 29.2974H82.3571C82.2235 29.2974 82.1174 29.1913 82.1174 29.0577C82.1174 28.9242 82.2235 28.8181 82.3571 28.8181H83.0487C83.1823 28.8181 83.2884 28.9242 83.2884 29.0577C83.2884 29.1913 83.1823 29.2974 83.0487 29.2974ZM80.9703 29.2974H80.2786C80.145 29.2974 80.0389 29.1913 80.0389 29.0577C80.0389 28.9242 80.145 28.8181 80.2786 28.8181H80.9703C81.1038 28.8181 81.2099 28.9242 81.2099 29.0577C81.2099 29.1913 81.1038 29.2974 80.9703 29.2974ZM78.8918 29.2974H78.2001C78.0665 29.2974 77.9604 29.1913 77.9604 29.0577C77.9604 28.9242 78.0665 28.8181 78.2001 28.8181H78.8918C79.0253 28.8181 79.1315 28.9242 79.1315 29.0577C79.1315 29.1913 79.0253 29.2974 78.8918 29.2974ZM76.8133 29.2974H76.1216C75.9881 29.2974 75.8819 29.1913 75.8819 29.0577C75.8819 28.9242 75.9881 28.8181 76.1216 28.8181H76.8133C76.9468 28.8181 77.053 28.9242 77.053 29.0577C77.053 29.1913 76.9468 29.2974 76.8133 29.2974ZM74.7348 29.2974H74.0431C73.9096 29.2974 73.8034 29.1913 73.8034 29.0577C73.8034 28.9242 73.9096 28.8181 74.0431 28.8181H74.7348C74.8683 28.8181 74.9745 28.9242 74.9745 29.0577C74.9745 29.1913 74.8683 29.2974 74.7348 29.2974ZM72.6563 29.2974H71.9646C71.8311 29.2974 71.7249 29.1913 71.7249 29.0577C71.7249 28.9242 71.8311 28.8181 71.9646 28.8181H72.6563C72.7899 28.8181 72.896 28.9242 72.896 29.0577C72.896 29.1913 72.7899 29.2974 72.6563 29.2974ZM70.5778 29.2974H69.8861C69.7526 29.2974 69.6464 29.1913 69.6464 29.0577C69.6464 28.9242 69.7526 28.8181 69.8861 28.8181H70.5778C70.7114 28.8181 70.8175 28.9242 70.8175 29.0577C70.8175 29.1913 70.7114 29.2974 70.5778 29.2974ZM68.4993 29.2974H67.8076C67.6741 29.2974 67.568 29.1913 67.568 29.0577C67.568 28.9242 67.6741 28.8181 67.8076 28.8181H68.4993C68.6329 28.8181 68.739 28.9242 68.739 29.0577C68.739 29.1913 68.6329 29.2974 68.4993 29.2974ZM66.4243 29.2974H65.7326C65.599 29.2974 65.4929 29.1913 65.4929 29.0577C65.4929 28.9242 65.599 28.8181 65.7326 28.8181H66.4243C66.5578 28.8181 66.664 28.9242 66.664 29.0577C66.664 29.1913 66.5544 29.2974 66.4243 29.2974ZM64.3458 29.2974H63.6541C63.5205 29.2974 63.4144 29.1913 63.4144 29.0577C63.4144 28.9242 63.5205 28.8181 63.6541 28.8181H64.3458C64.4793 28.8181 64.5855 28.9242 64.5855 29.0577C64.5855 29.1913 64.4759 29.2974 64.3458 29.2974ZM62.2673 29.2974H61.5756C61.4421 29.2974 61.3359 29.1913 61.3359 29.0577C61.3359 28.9242 61.4421 28.8181 61.5756 28.8181H62.2673C62.4008 28.8181 62.507 28.9242 62.507 29.0577C62.507 29.1913 62.3974 29.2974 62.2673 29.2974ZM60.1888 29.2974H59.4971C59.3636 29.2974 59.2574 29.1913 59.2574 29.0577C59.2574 28.9242 59.3636 28.8181 59.4971 28.8181H60.1888C60.3223 28.8181 60.4285 28.9242 60.4285 29.0577C60.4285 29.1913 60.3189 29.2974 60.1888 29.2974ZM58.1103 29.2974H57.4186C57.2851 29.2974 57.1789 29.1913 57.1789 29.0577C57.1789 28.9242 57.2851 28.8181 57.4186 28.8181H58.1103C58.2439 28.8181 58.35 28.9242 58.35 29.0577C58.35 29.1913 58.2404 29.2974 58.1103 29.2974ZM56.0318 29.2974H55.3401C55.2066 29.2974 55.1004 29.1913 55.1004 29.0577C55.1004 28.9242 55.2066 28.8181 55.3401 28.8181H56.0318C56.1654 28.8181 56.2715 28.9242 56.2715 29.0577C56.2715 29.1913 56.1654 29.2974 56.0318 29.2974ZM53.9533 29.2974H53.2617C53.1281 29.2974 53.022 29.1913 53.022 29.0577C53.022 28.9242 53.1281 28.8181 53.2617 28.8181H53.9533C54.0869 28.8181 54.193 28.9242 54.193 29.0577C54.193 29.1913 54.0869 29.2974 53.9533 29.2974ZM51.8749 29.2974H51.1832C51.0496 29.2974 50.9435 29.1913 50.9435 29.0577C50.9435 28.9242 51.0496 28.8181 51.1832 28.8181H51.8749C52.0084 28.8181 52.1145 28.9242 52.1145 29.0577C52.1145 29.1913 52.0084 29.2974 51.8749 29.2974ZM49.7964 29.2974H49.1047C48.9711 29.2974 48.865 29.1913 48.865 29.0577C48.865 28.9242 48.9711 28.8181 49.1047 28.8181H49.7964C49.9299 28.8181 50.0361 28.9242 50.0361 29.0577C50.0361 29.1913 49.9299 29.2974 49.7964 29.2974ZM47.7179 29.2974H47.0262C46.8926 29.2974 46.7865 29.1913 46.7865 29.0577C46.7865 28.9242 46.8926 28.8181 47.0262 28.8181H47.7179C47.8514 28.8181 47.9576 28.9242 47.9576 29.0577C47.9576 29.1913 47.8514 29.2974 47.7179 29.2974ZM45.6394 29.2974H44.9477C44.8142 29.2974 44.708 29.1913 44.708 29.0577C44.708 28.9242 44.8142 28.8181 44.9477 28.8181H45.6394C45.7729 28.8181 45.8791 28.9242 45.8791 29.0577C45.8791 29.1913 45.7729 29.2974 45.6394 29.2974Z" fill="#394259"/>
<path d="M43.1602 29.6364C43.1465 29.6364 43.1328 29.6364 43.1157 29.633C42.9856 29.609 42.9 29.4823 42.9239 29.3522C42.9445 29.2427 42.9616 29.1331 42.9822 29.0201C42.9993 28.9037 43.102 28.8181 43.2184 28.8181H43.5608C43.6944 28.8181 43.8005 28.9242 43.8005 29.0577C43.8005 29.1913 43.6944 29.2974 43.5608 29.2974H43.4205C43.4136 29.3454 43.4033 29.3933 43.3965 29.4378C43.3759 29.5543 43.2766 29.6364 43.1602 29.6364Z" fill="#394259"/>
<path d="M35.2742 37.8271C35.1578 37.8271 35.0585 37.7449 35.0379 37.6251C35.0174 37.495 35.103 37.3717 35.2366 37.3511C35.4557 37.3135 35.6749 37.2724 35.8872 37.221C36.0173 37.1902 36.144 37.2724 36.1748 37.3991C36.2056 37.5258 36.1234 37.6559 35.9967 37.6867C35.7742 37.7381 35.5482 37.7826 35.3187 37.8203C35.3016 37.8237 35.2879 37.8271 35.2742 37.8271ZM37.2363 37.3032C37.1404 37.3032 37.048 37.245 37.0137 37.1491C36.9658 37.0258 37.0308 36.8855 37.1541 36.8409C37.3596 36.7622 37.565 36.6766 37.7636 36.5876C37.8835 36.5328 38.0273 36.5841 38.0821 36.704C38.1368 36.8238 38.0855 36.9676 37.9656 37.0224C37.7568 37.1183 37.541 37.2073 37.3253 37.2895C37.2945 37.2998 37.2637 37.3032 37.2363 37.3032ZM39.0443 36.3821C38.9655 36.3821 38.8902 36.3444 38.8457 36.2759C38.7737 36.1664 38.8011 36.0157 38.9141 35.9438C39.0956 35.824 39.2771 35.6938 39.4483 35.5603C39.5545 35.4781 39.7017 35.4987 39.7839 35.6014C39.8661 35.7041 39.8455 35.8548 39.7428 35.937C39.5613 36.0808 39.373 36.2177 39.1778 36.3444C39.1333 36.3718 39.0888 36.3821 39.0443 36.3821ZM40.5886 35.0741C40.5304 35.0741 40.4722 35.0535 40.4242 35.009C40.3283 34.92 40.3215 34.7659 40.4105 34.67C40.5578 34.5125 40.705 34.3447 40.842 34.1701C40.9241 34.0673 41.0748 34.0502 41.1775 34.1324C41.2803 34.2146 41.2974 34.3652 41.2152 34.468C41.0714 34.6495 40.9173 34.8275 40.7598 34.9953C40.7153 35.0467 40.6536 35.0741 40.5886 35.0741ZM41.7973 33.4441C41.7562 33.4441 41.7151 33.4339 41.6775 33.4099C41.5645 33.3448 41.5234 33.1976 41.5919 33.0812C41.7014 32.8928 41.8076 32.6977 41.9069 32.4991C41.9651 32.3792 42.1089 32.3313 42.2288 32.3929C42.3486 32.4511 42.3966 32.5949 42.3349 32.7148C42.2322 32.9202 42.1226 33.1257 42.0062 33.3243C41.9583 33.3996 41.8795 33.4441 41.7973 33.4441ZM42.6431 31.5985C42.6157 31.5985 42.5883 31.5951 42.5643 31.5848C42.4411 31.5403 42.3726 31.4033 42.4171 31.28C42.489 31.0746 42.5575 30.8623 42.6191 30.6466C42.6568 30.5199 42.7903 30.448 42.917 30.4822C43.0437 30.5199 43.1156 30.6534 43.0814 30.7801C43.0163 31.0027 42.9444 31.2218 42.8691 31.4376C42.8348 31.5369 42.7424 31.5985 42.6431 31.5985Z" fill="#394259"/>
<path d="M33.5827 38.3305C33.4526 38.3305 33.343 38.2243 33.343 38.0942L33.3396 37.7552C33.3396 37.6251 33.4423 37.5121 33.5724 37.5086C33.6854 37.5052 33.7984 37.5018 33.908 37.495C34.045 37.4881 34.1546 37.5908 34.1614 37.7209C34.1683 37.8545 34.0655 37.9675 33.9354 37.9743C33.8977 37.9778 33.8601 37.9778 33.8224 37.9812V38.0908C33.8258 38.2209 33.7197 38.327 33.5827 38.3305Z" fill="#394259"/>
<path d="M64.0033 115.577C63.9142 115.574 63.832 115.57 63.7499 115.563C63.6197 115.55 63.5204 115.433 63.5341 115.303C63.5478 115.169 63.6677 115.077 63.7944 115.087C63.8663 115.094 63.9348 115.098 64.0033 115.101C64.1197 115.098 64.2635 115.084 64.421 115.063C64.5545 115.046 64.6744 115.135 64.6915 115.265C64.7086 115.395 64.6196 115.519 64.4895 115.536C64.3149 115.56 64.1505 115.574 64.0033 115.577ZM62.435 115.286C62.4144 115.286 62.3905 115.282 62.3699 115.276C62.1576 115.214 61.9385 115.145 61.7056 115.067C61.5789 115.026 61.5139 114.889 61.555 114.762C61.596 114.635 61.733 114.57 61.8597 114.611C62.0857 114.687 62.298 114.755 62.5034 114.813C62.6301 114.851 62.7055 114.981 62.6678 115.111C62.6336 115.217 62.5377 115.286 62.435 115.286ZM65.7873 115.217C65.6845 115.217 65.5886 115.152 65.5578 115.046C65.5202 114.919 65.5921 114.786 65.7188 114.748C65.9242 114.687 66.1365 114.615 66.3625 114.536C66.4892 114.491 66.6228 114.56 66.6673 114.683C66.7118 114.81 66.6433 114.943 66.52 114.988C66.2906 115.067 66.0715 115.142 65.8592 115.204C65.8352 115.217 65.8112 115.217 65.7873 115.217ZM60.49 114.608C60.4592 114.608 60.4318 114.601 60.401 114.591C60.1921 114.509 59.9798 114.42 59.7641 114.331C59.6408 114.279 59.586 114.139 59.634 114.016C59.6853 113.892 59.8257 113.837 59.949 113.885C60.1647 113.974 60.3736 114.06 60.5791 114.142C60.7023 114.19 60.7605 114.331 60.7126 114.454C60.6749 114.55 60.5859 114.608 60.49 114.608ZM67.7219 114.519C67.626 114.519 67.537 114.461 67.4994 114.368C67.448 114.245 67.5096 114.105 67.6329 114.057C67.8384 113.974 68.0472 113.885 68.263 113.796C68.3828 113.745 68.5266 113.8 68.578 113.923C68.6293 114.046 68.5746 114.187 68.4513 114.238C68.2356 114.331 68.0233 114.42 67.8144 114.502C67.7836 114.512 67.7527 114.519 67.7219 114.519ZM58.5999 113.8C58.5656 113.8 58.5348 113.793 58.5006 113.779C58.2951 113.687 58.0862 113.591 57.8739 113.492C57.7541 113.437 57.7027 113.293 57.7575 113.173C57.8123 113.053 57.9561 113.002 58.076 113.057C58.2848 113.156 58.4937 113.248 58.6957 113.341C58.8156 113.396 58.8704 113.536 58.8156 113.659C58.7779 113.748 58.6889 113.8 58.5999 113.8ZM69.6121 113.7C69.5196 113.7 69.434 113.649 69.3929 113.56C69.3382 113.44 69.3895 113.296 69.5128 113.242C69.7148 113.149 69.9237 113.053 70.1326 112.954C70.2524 112.899 70.3962 112.951 70.451 113.07C70.5058 113.19 70.4544 113.334 70.3346 113.389C70.1223 113.488 69.9168 113.584 69.7114 113.676C69.6806 113.694 69.6463 113.7 69.6121 113.7ZM56.7371 112.923C56.7029 112.923 56.6652 112.916 56.631 112.899C56.4289 112.8 56.2235 112.697 56.0146 112.594C55.8947 112.536 55.8468 112.392 55.9084 112.273C55.9667 112.156 56.1105 112.105 56.2303 112.166C56.4358 112.269 56.6412 112.372 56.8433 112.468C56.9631 112.526 57.011 112.67 56.9528 112.79C56.9117 112.872 56.8261 112.923 56.7371 112.923ZM71.4714 112.817C71.3824 112.817 71.2968 112.769 71.2557 112.683C71.1975 112.564 71.2454 112.42 71.3653 112.362C71.5673 112.262 71.7728 112.16 71.9782 112.057C72.098 111.995 72.2419 112.047 72.3001 112.163C72.3583 112.283 72.3104 112.427 72.1939 112.485C71.9885 112.588 71.783 112.69 71.5776 112.79C71.5433 112.81 71.5057 112.817 71.4714 112.817ZM54.9017 111.999C54.8641 111.999 54.8264 111.988 54.7922 111.971C54.5901 111.869 54.3881 111.762 54.1826 111.656C54.0662 111.595 54.0217 111.451 54.0799 111.334C54.1416 111.218 54.2854 111.17 54.4018 111.232C54.6038 111.338 54.8093 111.444 55.0079 111.547C55.1243 111.608 55.1722 111.752 55.1106 111.869C55.0695 111.951 54.9873 111.999 54.9017 111.999ZM73.3068 111.889C73.2212 111.889 73.1356 111.841 73.0945 111.759C73.0329 111.643 73.0808 111.495 73.1972 111.437C73.3993 111.334 73.6013 111.228 73.8033 111.122C73.9197 111.06 74.0635 111.105 74.1286 111.221C74.1902 111.338 74.1457 111.482 74.0293 111.547C73.8238 111.653 73.6218 111.759 73.4198 111.865C73.3787 111.882 73.3445 111.889 73.3068 111.889ZM53.0801 111.04C53.0424 111.04 53.0013 111.03 52.9671 111.012L52.3644 110.687C52.248 110.626 52.2035 110.478 52.2685 110.362C52.3302 110.245 52.4774 110.201 52.5938 110.266L53.1965 110.591C53.3129 110.653 53.3574 110.8 53.2958 110.917C53.2478 110.995 53.1657 111.04 53.0801 111.04ZM75.125 110.927C75.0394 110.927 74.9573 110.882 74.9127 110.8C74.8511 110.684 74.8922 110.54 75.0086 110.475L75.6113 110.15C75.7277 110.085 75.8715 110.129 75.9366 110.245C76.0016 110.362 75.9571 110.506 75.8407 110.571L75.238 110.899C75.2004 110.92 75.1627 110.927 75.125 110.927ZM51.2755 110.054C51.2344 110.054 51.1968 110.043 51.1591 110.023L50.5599 109.687C50.4434 109.622 50.4023 109.475 50.4674 109.362C50.5325 109.246 50.6797 109.204 50.7927 109.27L51.3885 109.602C51.5049 109.667 51.546 109.811 51.481 109.927C51.4399 110.009 51.3611 110.054 51.2755 110.054ZM76.9262 109.941C76.8406 109.941 76.7618 109.896 76.7173 109.817C76.6522 109.701 76.6933 109.557 76.8097 109.492C77.0084 109.383 77.207 109.27 77.4056 109.16C77.522 109.095 77.6692 109.136 77.7309 109.252C77.7959 109.369 77.7548 109.513 77.6384 109.578C77.4398 109.691 77.2378 109.804 77.0392 109.913C77.0049 109.93 76.9673 109.941 76.9262 109.941ZM49.4847 109.044C49.4436 109.044 49.4025 109.033 49.3648 109.013C49.1662 108.9 48.9676 108.783 48.769 108.67C48.656 108.605 48.6149 108.458 48.68 108.342C48.745 108.229 48.8923 108.188 49.0087 108.253C49.2073 108.366 49.4059 108.482 49.6045 108.595C49.7209 108.66 49.7586 108.807 49.6935 108.924C49.649 109.002 49.5668 109.044 49.4847 109.044ZM78.717 108.927C78.6348 108.927 78.5527 108.883 78.5082 108.807C78.4431 108.691 78.4808 108.547 78.5972 108.479L79.1896 108.136C79.3026 108.068 79.4498 108.109 79.5183 108.222C79.5833 108.335 79.5457 108.482 79.4327 108.55L78.8369 108.893C78.7992 108.917 78.7581 108.927 78.717 108.927ZM47.7041 108.013C47.663 108.013 47.6219 108.003 47.5842 107.979L46.9918 107.629C46.8788 107.561 46.8412 107.414 46.9062 107.301C46.9747 107.188 47.122 107.15 47.235 107.215L47.8239 107.564C47.9369 107.633 47.9746 107.777 47.9095 107.893C47.8684 107.972 47.7862 108.013 47.7041 108.013ZM80.4942 107.896C80.412 107.896 80.3332 107.855 80.2887 107.777C80.2202 107.664 80.2613 107.516 80.3743 107.448L80.9633 107.099C81.0763 107.03 81.2235 107.068 81.292 107.181C81.3605 107.294 81.3228 107.441 81.2098 107.51L80.6175 107.859C80.5764 107.883 80.5353 107.896 80.4942 107.896ZM45.9372 106.965C45.8961 106.965 45.8516 106.955 45.8139 106.931L45.2284 106.575C45.1154 106.506 45.0777 106.359 45.1496 106.246C45.2181 106.133 45.3653 106.095 45.4783 106.167L46.0639 106.52C46.1769 106.588 46.2145 106.736 46.1461 106.849C46.0981 106.921 46.0194 106.965 45.9372 106.965ZM82.2611 106.842C82.1789 106.842 82.1001 106.801 82.0556 106.725C81.9871 106.612 82.0248 106.465 82.1378 106.397L82.7233 106.041C82.8363 105.972 82.9836 106.006 83.0521 106.119C83.1205 106.232 83.0863 106.38 82.9733 106.448L82.3878 106.804C82.3467 106.832 82.3022 106.842 82.2611 106.842ZM44.1806 105.893C44.1361 105.893 44.095 105.883 44.0539 105.859C43.8587 105.739 43.6635 105.616 43.4718 105.496C43.3588 105.424 43.3245 105.277 43.3964 105.167C43.4649 105.054 43.6156 105.02 43.7252 105.092C43.9169 105.212 44.1121 105.332 44.3073 105.452C44.4203 105.52 44.4545 105.667 44.386 105.78C44.3415 105.852 44.2628 105.893 44.1806 105.893ZM84.0143 105.767C83.9355 105.767 83.8567 105.726 83.8088 105.654C83.7403 105.541 83.7746 105.393 83.8876 105.325C84.0827 105.205 84.2779 105.082 84.4663 104.962C84.5793 104.89 84.7265 104.924 84.795 105.037C84.8669 105.15 84.8326 105.297 84.7196 105.366C84.5279 105.486 84.3327 105.609 84.1375 105.729C84.1033 105.756 84.0588 105.767 84.0143 105.767ZM42.4377 104.798C42.3931 104.798 42.3486 104.784 42.3075 104.76L41.7288 104.39C41.6158 104.318 41.585 104.171 41.6569 104.058C41.7288 103.945 41.8761 103.914 41.9891 103.986L42.5643 104.356C42.6773 104.428 42.7082 104.575 42.6363 104.688C42.5952 104.76 42.5164 104.798 42.4377 104.798ZM85.7572 104.671C85.6784 104.671 85.5997 104.633 85.5551 104.561C85.4832 104.448 85.5175 104.301 85.6271 104.229C85.8222 104.106 86.014 103.983 86.2023 103.859C86.3119 103.787 86.4626 103.818 86.5345 103.931C86.6064 104.041 86.5756 104.191 86.4626 104.263C86.2742 104.387 86.079 104.51 85.8839 104.633C85.8462 104.661 85.8017 104.671 85.7572 104.671ZM40.7119 103.681C40.6673 103.681 40.6194 103.668 40.5783 103.64C40.3831 103.51 40.1914 103.383 40.0065 103.26C39.8969 103.188 39.8661 103.038 39.9414 102.928C40.0133 102.818 40.164 102.788 40.2736 102.863C40.4585 102.986 40.6502 103.113 40.842 103.243C40.9516 103.315 40.9824 103.466 40.9105 103.575C40.8659 103.644 40.7906 103.681 40.7119 103.681ZM87.483 103.551C87.4042 103.551 87.3289 103.513 87.2844 103.445C87.2125 103.335 87.2399 103.185 87.3529 103.113C87.548 102.983 87.7364 102.856 87.9213 102.733C88.0308 102.661 88.1815 102.688 88.2534 102.798C88.3287 102.907 88.2979 103.058 88.1884 103.13C88.0034 103.253 87.8117 103.383 87.6165 103.51C87.572 103.537 87.5275 103.551 87.483 103.551ZM39.0066 102.527C38.9587 102.527 38.9107 102.514 38.8696 102.486C38.6745 102.353 38.4861 102.219 38.3046 102.089C38.1951 102.014 38.1711 101.863 38.2464 101.753C38.3218 101.644 38.4724 101.62 38.582 101.695C38.7601 101.822 38.9484 101.952 39.1402 102.086C39.2497 102.161 39.2771 102.312 39.2018 102.418C39.1573 102.493 39.0819 102.527 39.0066 102.527ZM89.1848 102.394C89.1095 102.394 89.0341 102.36 88.9862 102.291C88.9109 102.181 88.9383 102.034 89.0444 101.955C89.2396 101.822 89.4245 101.688 89.6026 101.562C89.7087 101.486 89.8594 101.51 89.9381 101.616C90.0169 101.723 89.9895 101.873 89.8833 101.952C89.7053 102.082 89.5169 102.212 89.3218 102.349C89.2807 102.38 89.2293 102.394 89.1848 102.394ZM37.3356 101.322C37.2842 101.322 37.2329 101.305 37.1918 101.274C36.9932 101.123 36.8117 100.98 36.6439 100.846C36.5412 100.764 36.5241 100.613 36.6097 100.51C36.6919 100.408 36.8425 100.391 36.9452 100.476C37.1062 100.606 37.2842 100.747 37.4794 100.894C37.5856 100.973 37.6061 101.123 37.5239 101.23C37.4794 101.291 37.4075 101.322 37.3356 101.322ZM90.8455 101.178C90.7736 101.178 90.7017 101.147 90.6572 101.086C90.575 100.98 90.5956 100.829 90.6983 100.75C90.8935 100.599 91.0715 100.456 91.2256 100.326C91.3249 100.24 91.479 100.254 91.5646 100.356C91.6502 100.459 91.6365 100.61 91.5338 100.695C91.3729 100.829 91.1914 100.976 90.9928 101.13C90.9517 101.164 90.8969 101.178 90.8455 101.178ZM35.9009 99.901C35.7947 99.901 35.6954 99.829 35.668 99.7229C35.6201 99.5346 35.5721 99.3017 35.5242 99.0346C35.5002 98.9045 35.5893 98.7812 35.7194 98.7573C35.8495 98.7367 35.9728 98.8223 35.9967 98.9524C36.0413 99.2093 36.0892 99.4284 36.1337 99.6065C36.1679 99.7332 36.0892 99.8667 35.9625 99.8975C35.942 99.901 35.9214 99.901 35.9009 99.901ZM92.1502 99.6715C92.133 99.6715 92.1159 99.6715 92.0988 99.6647C91.9687 99.6373 91.8865 99.5072 91.9173 99.3805C91.9584 99.1921 91.9995 98.9696 92.0406 98.7196C92.0611 98.5895 92.1878 98.5005 92.3145 98.521C92.4446 98.5416 92.5337 98.6648 92.5131 98.7949C92.472 99.0586 92.4275 99.288 92.3864 99.4832C92.359 99.5962 92.2597 99.6715 92.1502 99.6715ZM35.5653 97.8738C35.4454 97.8738 35.3427 97.7848 35.329 97.6615C35.3016 97.4458 35.2777 97.2164 35.2537 96.9767C35.24 96.8466 35.3359 96.7267 35.466 96.713C35.5995 96.6959 35.716 96.7952 35.7297 96.9253C35.7536 97.1616 35.781 97.391 35.805 97.6033C35.8221 97.7334 35.7262 97.8533 35.5961 97.8704C35.5858 97.8704 35.5756 97.8738 35.5653 97.8738ZM92.4583 97.6341C92.4481 97.6341 92.4412 97.6341 92.4309 97.6341C92.3008 97.6204 92.2049 97.5006 92.2186 97.367C92.2426 97.1513 92.2666 96.9253 92.2905 96.6891C92.3042 96.5589 92.4207 96.4562 92.5542 96.4733C92.6843 96.487 92.7836 96.6035 92.7699 96.737C92.746 96.9767 92.722 97.2061 92.698 97.4218C92.6809 97.5451 92.5782 97.6341 92.4583 97.6341ZM35.3598 95.8262C35.2366 95.8262 35.1338 95.7337 35.1201 95.607C35.0996 95.3844 35.0825 95.1584 35.0619 94.9222C35.0517 94.7921 35.151 94.6756 35.2811 94.6654C35.4112 94.6482 35.5276 94.751 35.5379 94.8845C35.5584 95.1173 35.5756 95.3468 35.5961 95.5659C35.6064 95.6995 35.5105 95.8125 35.377 95.8262C35.3735 95.8262 35.3667 95.8262 35.3598 95.8262ZM92.6569 95.5899C92.6501 95.5899 92.6432 95.5899 92.6364 95.5899C92.5063 95.5796 92.407 95.4632 92.4172 95.3297L92.472 94.6482C92.4823 94.5181 92.6021 94.4222 92.7288 94.4291C92.8624 94.4394 92.9583 94.5558 92.948 94.6859L92.8898 95.3707C92.8863 95.494 92.7802 95.5899 92.6569 95.5899ZM35.1955 93.7751C35.0722 93.7751 34.9661 93.6792 34.9558 93.5525L34.9078 92.8677C34.8976 92.7341 34.9969 92.6211 35.1304 92.6108C35.2708 92.6006 35.377 92.7033 35.3872 92.8334L35.4352 93.5148C35.4454 93.6449 35.3461 93.7614 35.2126 93.7716C35.2092 93.7751 35.2023 93.7751 35.1955 93.7751ZM92.8144 93.5388C92.8076 93.5388 92.8042 93.5388 92.7973 93.5388C92.6638 93.5285 92.5645 93.4155 92.5748 93.282L92.6227 92.6006C92.633 92.467 92.7494 92.3711 92.8761 92.378C93.0096 92.3883 93.1089 92.5013 93.0987 92.6314L93.0507 93.3162C93.0473 93.4429 92.9411 93.5388 92.8144 93.5388ZM35.0619 91.724C34.9352 91.724 34.8291 91.6247 34.8222 91.498L34.7811 90.8131C34.7743 90.6796 34.8736 90.5666 35.0071 90.5597C35.1441 90.5597 35.2537 90.6522 35.2605 90.7857L35.3016 91.4706C35.3085 91.6041 35.2092 91.7171 35.0756 91.724C35.0688 91.724 35.0654 91.724 35.0619 91.724ZM92.9514 91.4877C92.948 91.4877 92.9411 91.4877 92.9377 91.4877C92.8042 91.4809 92.7049 91.3679 92.7117 91.2343L92.7528 90.5529C92.7597 90.4194 92.8795 90.3269 93.0062 90.3269C93.1397 90.3338 93.239 90.4467 93.2322 90.5803L93.1911 91.2651C93.1808 91.3884 93.0781 91.4877 92.9514 91.4877ZM34.9421 89.6729C34.8154 89.6729 34.7092 89.5736 34.7024 89.4469L34.6647 88.762C34.6579 88.6285 34.7606 88.5155 34.8907 88.5087C35.0277 88.5121 35.1373 88.6045 35.1441 88.7346L35.1818 89.4195C35.1886 89.553 35.0893 89.666 34.9558 89.6729C34.9489 89.6729 34.9455 89.6729 34.9421 89.6729ZM93.0678 89.4332C93.0644 89.4332 93.0576 89.4332 93.0541 89.4332C92.9206 89.4263 92.8213 89.3133 92.8281 89.1798L92.8658 88.495C92.8727 88.3614 92.9959 88.269 93.1192 88.269C93.2527 88.2758 93.352 88.3888 93.3452 88.5224L93.3075 89.2072C93.3007 89.3339 93.1945 89.4332 93.0678 89.4332ZM34.8325 87.6184C34.7058 87.6184 34.5997 87.5191 34.5928 87.3889L34.5586 86.7041C34.5517 86.5706 34.6545 86.461 34.788 86.4541C34.9215 86.4439 35.0311 86.55 35.038 86.6836L35.0722 87.3684C35.0791 87.5019 34.9763 87.6115 34.8428 87.6184C34.8428 87.6184 34.8394 87.6184 34.8325 87.6184ZM93.174 87.3821C93.1706 87.3821 93.1671 87.3821 93.1603 87.3821C93.0267 87.3752 92.9274 87.2622 92.9309 87.1321L92.9651 86.4473C92.972 86.3137 93.0952 86.2076 93.2151 86.2179C93.3486 86.2247 93.4479 86.3377 93.4445 86.4678L93.4103 87.1527C93.4068 87.2828 93.3007 87.3821 93.174 87.3821ZM34.7366 85.5673C34.6099 85.5673 34.5038 85.468 34.4969 85.3378L34.4661 84.653C34.4593 84.5195 34.562 84.4099 34.6955 84.403C34.8359 84.3928 34.9387 84.4989 34.9455 84.6325L34.9763 85.3173C34.9832 85.4508 34.8804 85.5604 34.7469 85.5673C34.7435 85.5673 34.7401 85.5673 34.7366 85.5673ZM93.2699 85.331C93.2664 85.331 93.263 85.331 93.2596 85.331C93.126 85.3242 93.0233 85.2146 93.0302 85.081L93.061 84.3962C93.0678 84.2626 93.1877 84.1531 93.311 84.1668C93.4445 84.1736 93.5472 84.2832 93.5404 84.4167L93.5096 85.1016C93.5027 85.2283 93.3966 85.331 93.2699 85.331ZM34.6476 83.5127C34.5209 83.5127 34.4148 83.4134 34.4079 83.2833L34.3805 82.5985C34.3737 82.4649 34.4764 82.3554 34.6099 82.3485C34.7332 82.3348 34.8531 82.4444 34.8599 82.5779L34.8873 83.2628C34.8941 83.3963 34.7914 83.5059 34.6579 83.5127C34.6545 83.5127 34.651 83.5127 34.6476 83.5127ZM93.3589 83.2765C93.3555 83.2765 93.352 83.2765 93.3486 83.2765C93.2151 83.2696 93.1124 83.1601 93.1192 83.0265L93.1466 82.3417C93.1534 82.2081 93.2493 82.0986 93.3966 82.1123C93.5301 82.1191 93.6328 82.2287 93.626 82.3622L93.5986 83.0471C93.5917 83.1738 93.4856 83.2765 93.3589 83.2765ZM34.5654 81.4617C34.4387 81.4617 34.3326 81.3589 34.3257 81.2322L34.2983 80.5474C34.2949 80.4139 34.3976 80.3043 34.5278 80.2974C34.6613 80.2837 34.7709 80.3967 34.7777 80.5268L34.8051 81.2117C34.8085 81.3452 34.7058 81.4548 34.5757 81.4617C34.5723 81.4617 34.5688 81.4617 34.5654 81.4617ZM93.4411 81.222C93.4376 81.222 93.4342 81.222 93.4308 81.222C93.2973 81.2185 93.1945 81.1055 93.2014 80.972L93.2288 80.2872C93.2322 80.1536 93.3452 80.044 93.4787 80.0577C93.6123 80.0612 93.715 80.1742 93.7082 80.3077L93.6808 80.9925C93.6739 81.1227 93.5678 81.222 93.4411 81.222ZM34.4867 79.4071C34.36 79.4071 34.2504 79.3044 34.247 79.1777L34.223 78.4929C34.2196 78.3593 34.3223 78.2498 34.4524 78.2463C34.586 78.2292 34.6955 78.3456 34.699 78.4758L34.7229 79.1606C34.7264 79.2941 34.6236 79.4037 34.4935 79.4071C34.4935 79.4071 34.4901 79.4071 34.4867 79.4071ZM93.5164 79.1709C93.513 79.1709 93.5096 79.1709 93.5061 79.1709C93.3726 79.1674 93.2699 79.0544 93.2767 78.9243L93.3007 78.2395C93.3041 78.1094 93.4103 78.0101 93.5404 78.0101C93.5438 78.0101 93.5472 78.0101 93.5506 78.0101C93.6842 78.0135 93.7869 78.1265 93.7801 78.2566L93.7561 78.9414C93.7527 79.0681 93.6465 79.1709 93.5164 79.1709ZM34.4148 77.356C34.2846 77.356 34.1785 77.2533 34.1751 77.1232L34.1511 76.4384C34.1477 76.3048 34.2504 76.1952 34.3839 76.1918C34.5175 76.1781 34.6271 76.2911 34.6305 76.4247L34.6545 77.1095C34.6579 77.243 34.5552 77.3526 34.4216 77.356C34.4216 77.356 34.4182 77.356 34.4148 77.356ZM93.5883 77.1164C93.5849 77.1164 93.5815 77.1164 93.5815 77.1164C93.4479 77.1129 93.3452 76.9999 93.3486 76.8698L93.3726 76.185C93.376 76.0514 93.489 75.9384 93.6191 75.9521C93.7527 75.9555 93.8554 76.0685 93.852 76.1987L93.828 76.8835C93.8246 77.0136 93.7184 77.1164 93.5883 77.1164ZM34.3463 75.3015C34.2162 75.3015 34.11 75.1988 34.1066 75.0687L34.086 74.3838C34.0826 74.2503 34.1853 74.1407 34.3189 74.1373C34.449 74.1236 34.562 74.2366 34.5654 74.3701L34.586 75.055C34.5894 75.1885 34.4867 75.2981 34.3531 75.3015C34.3531 75.3015 34.3497 75.3015 34.3463 75.3015ZM93.6568 75.0618C93.6534 75.0618 93.6534 75.0618 93.6499 75.0618C93.5164 75.0584 93.4137 74.9488 93.4171 74.8153L93.4376 74.1305C93.4411 74.0003 93.5472 73.8976 93.6773 73.8976C93.6808 73.8976 93.6808 73.8976 93.6842 73.8976C93.8177 73.901 93.9205 74.0106 93.917 74.1441L93.8965 74.829C93.8931 74.9591 93.7869 75.0618 93.6568 75.0618ZM34.2812 73.247C34.1511 73.247 34.0449 73.1443 34.0415 73.0142L34.021 72.3293C34.0176 72.1958 34.1203 72.0862 34.2538 72.0828C34.3874 72.0691 34.4969 72.1821 34.5004 72.3156L34.5209 73.0005C34.5243 73.134 34.4216 73.2436 34.2881 73.247C34.2881 73.247 34.2846 73.247 34.2812 73.247ZM93.7219 73.0107C93.7184 73.0107 93.7184 73.0107 93.715 73.0107C93.5815 73.0073 93.4787 72.8977 93.4822 72.7642L93.5027 72.0794C93.5061 71.9492 93.6123 71.8465 93.7424 71.8465C93.7458 71.8465 93.7458 71.8465 93.7492 71.8465C93.8828 71.8499 93.9855 71.9595 93.9821 72.0931L93.9615 72.7779C93.9547 72.908 93.8486 73.0107 93.7219 73.0107ZM34.223 71.1959C34.0929 71.1959 33.9867 71.0932 33.9833 70.9631L33.9628 70.2782C33.9593 70.1447 34.0621 70.0351 34.1956 70.0317C34.3223 70.0351 34.4387 70.131 34.4422 70.2645L34.4627 70.9494C34.4661 71.0829 34.3634 71.1925 34.2299 71.1959C34.2264 71.1959 34.223 71.1959 34.223 71.1959ZM93.7801 70.9562C93.7766 70.9562 93.7766 70.9562 93.7732 70.9562C93.6397 70.9528 93.537 70.8432 93.5404 70.7097L93.5609 70.0248C93.5643 69.8913 93.6671 69.7886 93.8075 69.792C93.941 69.7954 94.0437 69.905 94.0403 70.0385L94.0198 70.7234C94.0163 70.8535 93.9102 70.9562 93.7801 70.9562ZM34.1648 69.1414C34.0347 69.1414 33.9285 69.0387 33.9251 68.9086L33.908 68.2237C33.9046 68.0902 34.0073 67.9806 34.1408 67.9772C34.2778 67.9806 34.3839 68.0765 34.3874 68.21L34.4045 68.8949C34.4079 69.0284 34.3052 69.138 34.1716 69.1414C34.1682 69.1414 34.1648 69.1414 34.1648 69.1414ZM93.8383 68.9017C93.8349 68.9017 93.8349 68.9017 93.8314 68.9017C93.6979 68.8983 93.5952 68.7887 93.5986 68.6552L93.6157 67.9703C93.6191 67.8402 93.7253 67.7375 93.8554 67.7375C93.8588 67.7375 93.8588 67.7375 93.8623 67.7375C93.9958 67.7409 94.0985 67.8505 94.0951 67.984L94.078 68.6689C94.0745 68.799 93.9684 68.9017 93.8383 68.9017ZM34.11 67.0869C33.9799 67.0869 33.8737 66.9842 33.8703 66.854L33.8532 66.1692C33.8498 66.0357 33.9559 65.9261 34.086 65.9227C34.2196 65.9227 34.3292 66.022 34.3326 66.1555L34.3497 66.8403C34.3531 66.9739 34.2504 67.0835 34.1169 67.0869C34.1134 67.0869 34.11 67.0869 34.11 67.0869ZM93.8931 66.8506C93.8896 66.8506 93.8896 66.8506 93.8862 66.8506C93.7527 66.8472 93.6499 66.7376 93.6534 66.6041L93.6705 65.9192C93.6739 65.7857 93.7766 65.683 93.917 65.6864C94.0506 65.6898 94.1533 65.7994 94.1499 65.9329L94.1328 66.6178C94.1293 66.7445 94.0232 66.8506 93.8931 66.8506ZM34.0552 65.0324C33.9251 65.0324 33.8189 64.9296 33.8155 64.7995L33.7984 64.1147C33.795 63.9811 33.9011 63.8716 34.0312 63.8681C34.1614 63.8647 34.2744 63.9709 34.2778 64.101L34.2949 64.7858C34.2983 64.9194 34.1922 65.0289 34.0621 65.0324C34.0621 65.0324 34.0586 65.0324 34.0552 65.0324ZM93.9444 64.7961C93.941 64.7961 93.941 64.7961 93.9376 64.7961C93.804 64.7927 93.7013 64.6831 93.7047 64.5496L93.7219 63.8681C93.7253 63.738 93.8314 63.6353 93.9615 63.6353C93.9615 63.6353 93.965 63.6353 93.9684 63.6353C94.1019 63.6387 94.2047 63.7483 94.2012 63.8818L94.1841 64.5632C94.1807 64.6934 94.0746 64.7961 93.9444 64.7961ZM34.0073 62.9813C33.8772 62.9813 33.771 62.8785 33.7676 62.7484L33.7505 62.0636C33.747 61.93 33.8532 61.8205 33.9833 61.817C34.1237 61.817 34.2264 61.9198 34.2299 62.0499L34.247 62.7347C34.2504 62.8683 34.1442 62.9778 34.0141 62.9813C34.0107 62.9813 34.0107 62.9813 34.0073 62.9813ZM93.9958 62.7484C93.9958 62.7484 93.9924 62.7484 93.9889 62.7484C93.8554 62.745 93.7527 62.6354 93.7561 62.5019L93.7732 61.817C93.7766 61.6869 93.8828 61.5842 94.0129 61.5842C94.0129 61.5842 94.0163 61.5842 94.0198 61.5842C94.1533 61.5876 94.256 61.6972 94.2526 61.8307L94.2355 62.5156C94.2321 62.6423 94.1225 62.7484 93.9958 62.7484ZM33.9593 60.9199C33.8292 60.9199 33.7231 60.8172 33.7196 60.6871L33.7059 59.9988C33.7025 59.8652 33.8087 59.7557 33.9388 59.7557C34.0586 59.7488 34.1819 59.8584 34.1819 59.9885L34.1956 60.6768C34.199 60.8103 34.0929 60.9199 33.9628 60.9233C33.9628 60.9199 33.9628 60.9199 33.9593 60.9199ZM94.0403 60.6939C94.0403 60.6939 94.0369 60.6939 94.0335 60.6939C93.8999 60.6905 93.7972 60.5809 93.8006 60.4508L93.8143 59.7659C93.8177 59.6358 93.9239 59.5331 94.054 59.5331C94.054 59.5331 94.0574 59.5331 94.0609 59.5331C94.1944 59.5365 94.2971 59.6461 94.2937 59.7796L94.28 60.4645C94.2766 60.5912 94.1704 60.6939 94.0403 60.6939ZM33.9148 58.862C33.7847 58.862 33.6786 58.7592 33.6751 58.6257L33.6614 57.9409C33.658 57.8073 33.7642 57.6977 33.8977 57.6977C34.0244 57.7012 34.1408 57.8005 34.1408 57.934L34.1545 58.6188C34.1579 58.7524 34.0518 58.862 33.9183 58.862C33.9183 58.862 33.9182 58.862 33.9148 58.862ZM94.0848 58.636H94.0814C93.9479 58.6325 93.8451 58.523 93.8451 58.3928L93.8588 57.7046C93.8623 57.5745 93.9684 57.4683 94.0985 57.4683C94.0985 57.4683 94.1019 57.4683 94.1054 57.4683C94.2389 57.4717 94.3416 57.5813 94.3382 57.7114L94.3245 58.3963C94.3245 58.5332 94.2149 58.636 94.0848 58.636ZM33.8737 56.8074C33.7436 56.8074 33.6375 56.7047 33.634 56.5712L33.6203 55.8863C33.6169 55.7528 33.7231 55.6432 33.8566 55.6432C33.9799 55.6329 34.0997 55.7459 34.0997 55.8795L34.1134 56.5643C34.1169 56.6979 34.0107 56.8074 33.8772 56.8074H33.8737ZM94.1293 56.5814H94.1259C93.9924 56.578 93.8896 56.4684 93.8896 56.3383L93.9033 55.6535C93.9068 55.5234 94.0129 55.4172 94.143 55.4172H94.1465C94.28 55.4206 94.3827 55.5302 94.3827 55.6603L94.369 56.3452C94.3656 56.4753 94.2595 56.5814 94.1293 56.5814ZM33.8326 54.7563C33.7025 54.7563 33.5964 54.6536 33.593 54.5201L33.5793 53.8387C33.5758 53.7051 33.682 53.5955 33.8155 53.5955H33.8189C33.9491 53.5955 34.0552 53.6983 34.0586 53.8318L34.0723 54.5132C34.0758 54.6468 33.9696 54.7563 33.8361 54.7563H33.8326ZM94.1704 54.5269H94.167C94.0335 54.5235 93.9307 54.4139 93.9307 54.2838L93.9444 53.599C93.9479 53.4688 94.054 53.3627 94.1841 53.3627H94.1875C94.3211 53.3661 94.4238 53.4757 94.4238 53.6058L94.4101 54.2907C94.4067 54.4242 94.3005 54.5269 94.1704 54.5269ZM94.2047 52.4724H94.2012C94.0677 52.469 93.965 52.3594 93.965 52.2293L93.9787 51.5444C93.9821 51.4143 94.0882 51.3082 94.2184 51.3082H94.2218C94.3553 51.3116 94.4581 51.4212 94.4581 51.5513L94.4444 52.2361C94.4444 52.3697 94.3382 52.4724 94.2047 52.4724ZM33.5553 52.469L33.5416 51.7841C33.5382 51.6506 33.6443 51.541 33.7779 51.541C33.9011 51.5273 34.021 51.6438 34.021 51.7773L34.0347 52.4382L33.795 52.469H33.5553ZM33.7573 50.6507C33.6272 50.6507 33.521 50.5446 33.5176 50.4145L33.5073 49.7639C33.5039 49.6303 33.6101 49.5071 33.7436 49.5036C33.8737 49.5071 33.9833 49.5892 33.9867 49.7228L33.997 50.4076C34.0004 50.5412 33.8943 50.6507 33.7607 50.6507H33.7573ZM94.2423 50.4145H94.2389C94.1054 50.411 93.9992 50.3083 94.0026 50.1782L94.0129 49.4934C94.0163 49.3598 94.1225 49.2365 94.256 49.2571C94.3896 49.2605 94.4923 49.3667 94.4923 49.5002L94.482 50.1713C94.4786 50.3015 94.3725 50.4145 94.2423 50.4145ZM33.7231 48.5962C33.593 48.5962 33.4868 48.4901 33.4834 48.3599L33.4731 47.6751C33.4697 47.5416 33.5758 47.432 33.7094 47.432H33.7128C33.8429 47.432 33.9491 47.5381 33.9525 47.6683L33.9628 48.3531C33.9662 48.4866 33.86 48.5962 33.7265 48.5962H33.7231ZM94.2766 48.3634H94.2732C94.1396 48.3599 94.0369 48.2538 94.0369 48.1203L94.0472 47.4354C94.0506 47.3019 94.1567 47.1854 94.2903 47.1991C94.4238 47.2026 94.5265 47.3087 94.5265 47.4423L94.5163 48.1271C94.5128 48.2606 94.4067 48.3634 94.2766 48.3634ZM94.3074 46.3123C94.1704 46.3089 94.0643 46.2027 94.0677 46.0692L94.078 45.3843C94.0814 45.2508 94.1875 45.1412 94.3211 45.1481C94.4546 45.1515 94.5574 45.2576 94.5574 45.3912L94.5471 46.076C94.5471 46.2061 94.4409 46.3123 94.3074 46.3123ZM33.4526 46.3089L33.4423 45.624C33.4389 45.4905 33.545 45.3843 33.6786 45.3809H33.682C33.8121 45.3809 33.9183 45.487 33.9217 45.6172L33.9319 46.2678L33.6923 46.302L33.4526 46.3089ZM33.6614 44.4906C33.5313 44.4906 33.4252 44.3845 33.4217 44.2543L33.4115 43.5695C33.408 43.436 33.5142 43.3298 33.6477 43.3264H33.6512C33.7813 43.3264 33.8874 43.4325 33.8909 43.5626L33.9011 44.2475C33.9046 44.381 33.7984 44.4872 33.6649 44.4906H33.6614ZM94.3382 44.2475C94.2012 44.2441 94.0951 44.1482 94.0985 44.0146L94.1088 43.3298C94.1088 43.1997 94.2184 43.0935 94.3485 43.0935H94.3519C94.4855 43.0935 94.5916 43.2031 94.5882 43.3367L94.5779 44.0009C94.5779 44.1311 94.4683 44.2475 94.3382 44.2475ZM33.634 42.4361C33.5039 42.4361 33.3978 42.3299 33.3943 42.1998L33.3841 41.515C33.3841 41.3814 33.4868 41.2753 33.6203 41.2719C33.747 41.2582 33.86 41.3746 33.8635 41.5081L33.8737 42.193C33.8737 42.3265 33.7676 42.4327 33.634 42.4361ZM94.3656 42.2032C94.2286 42.1998 94.1225 42.0937 94.1259 41.9601L94.1362 41.2753C94.1362 41.1452 94.2458 41.039 94.3759 41.039H94.3793C94.5128 41.039 94.619 41.1486 94.6156 41.2821L94.6053 41.967C94.6053 42.0971 94.4992 42.2032 94.3656 42.2032ZM33.6066 40.3816C33.4765 40.3816 33.367 40.2754 33.367 40.1453L33.3601 39.4605C33.3601 39.3269 33.4663 39.2208 33.5964 39.2173H33.5998C33.7299 39.2173 33.8395 39.3235 33.8395 39.4536L33.8463 40.1384C33.8463 40.272 33.7436 40.3781 33.6066 40.3816ZM94.393 40.1487C94.3896 40.1487 94.3896 40.1487 94.393 40.1487C94.2595 40.1487 94.1533 40.0391 94.1533 39.9056L94.1602 39.2208C94.1602 39.0872 94.2629 38.9708 94.4033 38.9845C94.5368 38.9845 94.643 39.0941 94.6395 39.2276L94.6327 39.9125C94.6293 40.0426 94.5231 40.1487 94.393 40.1487Z" fill="#394259"/>
<path d="M37.9966 98.432C39.5135 99.6887 44.0369 102.812 50.2107 106.356C58.778 111.273 62.9384 112.677 63.9999 112.742C65.0614 112.677 69.2218 111.273 77.7892 106.356C83.963 102.812 88.4864 99.6887 90.0033 98.432C91.0442 92.515 91.8626 69.2579 92.1571 40.0734C88.2398 39.3749 84.4869 36.8718 83.0351 31.6567H44.9648C43.513 36.8718 39.7601 39.3749 35.8428 40.0734C36.1373 69.2579 36.9556 92.515 37.9966 98.432Z" fill="#394259"/>
<path d="M64 113.255C63.9897 113.255 63.9794 113.255 63.9691 113.255C62.8152 113.183 58.5657 111.742 49.9573 106.804C43.602 103.154 39.13 100.038 37.6713 98.8326C37.5788 98.7538 37.5138 98.6477 37.4932 98.5244C36.466 92.6725 35.6373 70.2782 35.3326 40.0802C35.3291 39.8303 35.5106 39.6145 35.7572 39.57C38.3013 39.1146 42.8179 37.4641 44.4752 31.5197C44.5368 31.2972 44.7388 31.1431 44.9683 31.1431H83.0316C83.2611 31.1431 83.4631 31.2972 83.5282 31.5197C85.182 37.4641 89.702 39.1146 92.2462 39.57C92.4927 39.6145 92.6708 39.8303 92.6708 40.0802C92.366 70.2782 91.5373 92.6725 90.5101 98.5244C90.4895 98.6443 90.4245 98.7538 90.332 98.8326C88.8767 100.038 84.4013 103.157 78.046 106.804C69.4376 111.745 65.1881 113.183 64.0342 113.255C64.0205 113.252 64.0102 113.255 64 113.255ZM38.4691 98.1546C40.0374 99.4147 44.3656 102.407 50.4641 105.907C58.8363 110.715 62.9521 112.136 63.9965 112.225C65.0443 112.136 69.1568 110.715 77.529 105.907C83.6274 102.407 87.9556 99.4147 89.5239 98.1546C90.5101 92.1725 91.3319 69.6584 91.6332 40.4945C88.8562 39.9022 84.439 38.036 82.6447 32.1669H45.3518C43.5575 38.036 39.1403 39.9022 36.3633 40.4945C36.6612 69.6619 37.4864 92.176 38.4691 98.1546Z" fill="white"/>
<path d="M35.199 27.0443L36.2981 28.6434L38.1575 29.1947L36.9761 30.7322L37.0275 32.6703L35.199 32.0231L33.3739 32.6703L33.4252 30.7322L32.2439 29.1947L34.1032 28.6434L35.199 27.0443Z" fill="#00C1D4"/>
<path d="M92.7974 27.0443L93.8931 28.6434L95.7525 29.1947L94.5711 30.7322L94.6225 32.6703L92.7974 32.0231L90.9688 32.6703L91.0202 30.7322L89.8389 29.1947L91.6982 28.6434L92.7974 27.0443Z" fill="#00C1D4"/>
<path d="M105.796 52.0923C105.576 51.8252 103.45 52.2498 101.563 52.5786L101.505 49.6611L99.1869 50.0515C99.2553 48.2709 99.3033 46.2027 99.2006 45.5555C99.0054 44.3502 93.5232 48.4764 87.6747 46.0692C81.8399 43.6619 72.9473 39.0975 63.9998 47.7128C55.0524 39.1009 46.1598 43.6654 40.3249 46.0692C34.4798 48.4798 28.9943 44.3502 28.7991 45.5555C28.6929 46.2027 28.7443 48.2709 28.8128 50.0515L26.4946 49.6611L26.4364 52.5786C24.5462 52.2498 22.4232 51.8252 22.2041 52.0923C21.8685 52.5032 22.2041 92.5834 22.2041 92.5834C22.2041 92.5834 23.18 96.4391 29.8024 98.61C36.4282 100.778 45.7797 96.1994 50.8475 95.2372C55.9153 94.2716 56.8878 98.61 57.4733 99.8154C58.0486 101.004 61.7433 101.254 63.9039 101.26C63.9211 101.26 63.9382 101.26 63.9519 101.26C63.969 101.26 63.9861 101.26 63.9998 101.26C64.0169 101.26 64.0341 101.26 64.0478 101.26C64.0649 101.26 64.082 101.26 64.0957 101.26C66.2564 101.254 69.9511 101 70.5263 99.8154C71.1119 98.61 72.0843 94.2716 77.1522 95.2372C82.22 96.2028 91.5714 100.781 98.1973 98.61C104.823 96.4425 105.796 92.5834 105.796 92.5834C105.796 92.5834 106.131 52.5032 105.796 52.0923Z" fill="#394259"/>
<path d="M100.29 51.6609C99.5054 51.7739 98.9165 51.993 98.1837 51.9382C98.1837 51.9382 99.3616 86.3035 98.2351 88.5908C96.2833 92.5492 81.7886 87.3958 76.3373 86.7486C67.5371 85.7043 63.9999 92.1075 63.9999 92.1075C63.9999 92.1075 60.4627 85.7043 51.6625 86.7486C46.2112 87.3958 31.7166 92.5458 29.7648 88.5908C28.6382 86.3035 29.8162 51.9382 29.8162 51.9382C29.0834 51.993 28.4944 51.7739 27.7103 51.6609C27.5562 65.3953 27.7445 89.036 28.0596 90.2413C28.176 90.6317 28.7581 91.2754 29.7956 91.8267C30.9188 92.4225 33.7985 93.2512 38.3356 91.813C44.595 89.827 52.2892 87.6732 57.1515 88.9161C60.949 89.8852 62.8049 91.8301 63.9999 93.9874C65.195 91.8301 67.0509 89.8852 70.8483 88.9161C75.7107 87.6732 83.4049 89.8304 89.6643 91.813C94.2013 93.2512 97.0811 92.4225 98.2042 91.8267C99.2418 91.2788 99.8239 90.6351 99.9403 90.2413C100.252 89.036 100.44 65.3953 100.29 51.6609Z" fill="#C09F74"/>
<path d="M104.077 54.2701C103.936 54.0167 102.998 54.2872 101.854 54.5303C101.923 60.8103 102.2 89.5633 101.745 91.1007C101.515 91.8746 100.666 92.717 99.4744 93.3505C98.2212 94.0182 94.773 95.381 89.8627 93.6415C84.9935 91.9191 76.0906 89.2174 71.17 90.4776C66.8042 91.5973 65.075 94.1243 63.9998 96.689C62.9211 94.1243 61.1919 91.5973 56.8295 90.4776C51.9089 89.214 43.006 91.9157 38.1368 93.6415C33.2231 95.381 29.7783 94.0182 28.5251 93.3505C27.33 92.717 26.4808 91.8746 26.2548 91.1007C25.8028 89.5667 26.0802 60.8137 26.1453 54.5303C25.0016 54.2906 24.0634 54.0201 23.923 54.2701C23.6525 54.7597 23.923 90.4159 23.923 91.6212C23.923 92.8265 28.121 98.1272 35.5139 96.4425C42.9067 94.7544 49.7037 90.659 54.4976 92.5869C59.2949 94.5147 59.4216 97.4937 59.9558 98.1409C60.4934 98.7881 62.5137 99.3188 64.0169 99.3188C65.5201 99.3188 67.513 98.7881 68.0472 98.1409C68.5848 97.4937 68.7115 94.5147 73.5053 92.5869C78.3026 90.659 85.0962 94.7544 92.4891 96.4425C99.8819 98.1306 104.077 92.8231 104.077 91.6178C104.077 90.4125 104.347 54.7597 104.077 54.2701Z" fill="#00C1D4"/>
<path d="M44.8484 83.2834C40.6332 84.6976 37.548 85.6735 35.6887 85.6735C34.9217 85.6735 34.3635 85.5091 34.0211 85.1393C32.1584 83.1361 33.4732 55.1296 33.802 48.7298C32.3398 48.4456 31.405 48.0826 31.405 48.0826C31.405 48.0826 30.299 86.3823 32.0145 87.5397C33.9766 88.8614 43.5609 86.2076 51.1387 84.5469C58.6651 82.8999 63.1747 87.8752 63.1747 87.8752V84.386C58.3261 81.4035 51.6626 80.996 44.8484 83.2834Z" fill="#E1F2F0"/>
<path d="M83.1481 83.2834C87.3633 84.6976 90.4485 85.6735 92.3078 85.6735C93.0748 85.6735 93.633 85.5091 93.9754 85.1393C95.8382 83.1361 94.5233 55.1296 94.1945 48.7298C95.6567 48.4456 96.5915 48.0826 96.5915 48.0826C96.5915 48.0826 97.6975 86.3823 95.982 87.5397C94.0199 88.8614 84.4356 86.2076 76.8578 84.5469C69.3314 82.8999 64.8218 87.8752 64.8218 87.8752V84.386C69.667 81.4035 76.3339 80.996 83.1481 83.2834Z" fill="#E1F2F0"/>
<path d="M72.8173 18.6653C73.0707 22.86 70.2766 24.7364 70.2766 24.7364C70.4033 13.036 60.6238 10.2761 60.6238 10.2761C64.3082 21.6444 49.5636 25.5069 49.7862 33.7866C49.9266 39.0325 55.2889 45.5967 55.2889 45.5967H72.2147C86.1169 31.4718 72.8173 18.6653 72.8173 18.6653Z" fill="#394259"/>
<path d="M73.9884 22.5723C73.6392 26.945 68.5029 28.2702 68.5029 28.2702C69.7869 19.8946 63.0173 13.3681 63.0173 13.3681C65.469 21.5382 52.2105 26.8115 52.2687 32.9134C52.3372 40.0563 57.2989 44.4975 57.2989 44.4975H69.7869C81.4566 34.8926 73.9884 22.5723 73.9884 22.5723Z" fill="#C09F74"/>
<path d="M58.2953 30.7459C58.5145 33.4887 61.7366 34.3208 61.7366 34.3208C60.9319 29.0681 65.1779 24.9761 65.1779 24.9761C63.6405 30.0987 72.0572 33.4065 72.1325 37.2348C72.2044 41.0596 67.7393 44.4975 67.7393 44.4975H61.5141C54.2685 41.3096 58.2953 30.7459 58.2953 30.7459Z" fill="#394259"/>
<path d="M62.0414 44.2475H66.914C67.818 43.4736 71.0881 39.9638 71.0368 37.2519C71.0128 36.0671 69.537 34.6118 68.1091 33.2045C66.6298 31.7457 64.9109 30.0508 64.2123 28.0442C63.3049 29.5714 62.442 31.7423 62.8118 34.1461L63.0652 35.8068C63.0652 35.8068 60.7128 36.026 58.5966 33.766C58.4357 34.581 58.3022 35.5261 58.2748 36.5088C58.1755 39.9227 59.6376 43.097 62.0414 44.2475Z" fill="#E1F2F0"/>
<path d="M73.0877 42.7853H54.9052C53.0835 42.7853 51.6042 44.3536 51.6042 46.278C51.6042 48.2058 53.0869 49.7707 54.9052 49.7707H56.292C56.3022 49.8597 56.3228 49.9488 56.3536 50.0378L57.9835 54.7461C56.4974 54.8454 55.3161 56.1603 55.3161 57.7594C55.3161 59.4235 56.5967 60.7761 58.1684 60.7761H58.867C58.867 60.8103 58.867 60.8446 58.8704 60.8788L60.7777 82.3622C60.7845 82.4273 60.7948 82.4889 60.8085 82.5505C60.038 82.8656 59.4868 83.6566 59.4868 84.5811C59.4868 85.6803 60.2606 86.5911 61.2605 86.7349C61.2365 86.8274 61.2262 86.9267 61.2262 87.0294C61.2262 88.6456 62.4692 89.9571 63.993 89.9571C65.5202 89.9571 66.7597 88.6422 66.7597 87.0294C66.7597 86.9267 66.7461 86.8308 66.7255 86.7349C67.7254 86.5911 68.4992 85.6803 68.4992 84.5811C68.4992 83.6566 67.9514 82.8621 67.1775 82.5505C67.1912 82.4889 67.2049 82.4273 67.2083 82.3622L69.1156 60.8788C69.119 60.8446 69.119 60.8103 69.119 60.7761H69.8176C71.3893 60.7761 72.6699 59.4235 72.6699 57.7594C72.6699 56.1603 71.4886 54.8488 70.0025 54.7461L71.6324 50.0378C71.6632 49.9522 71.6837 49.8597 71.694 49.7707H73.0842C74.9059 49.7707 76.3852 48.2024 76.3852 46.278C76.392 44.3536 74.9093 42.7853 73.0877 42.7853Z" fill="#394259"/>
<path d="M75.2859 46.2815C75.2859 47.5655 74.3032 48.6065 73.091 48.6065H54.9085C53.6964 48.6065 52.7136 47.5655 52.7136 46.2815C52.7136 44.9974 53.6964 43.9564 54.9085 43.9564H73.091C74.3032 43.9564 75.2859 44.9974 75.2859 46.2815Z" fill="#00C1D4"/>
<path d="M71.5742 57.7628C71.5742 58.7832 70.7935 59.6118 69.8278 59.6118H58.1685C57.2028 59.6118 56.4221 58.7832 56.4221 57.7628C56.4221 56.7423 57.2028 55.9137 58.1685 55.9137H69.8278C70.7935 55.9137 71.5742 56.7389 71.5742 57.7628Z" fill="#00C1D4"/>
<path d="M67.4001 84.5845C67.4001 85.1392 66.9755 85.5912 66.4516 85.5912H61.5481C61.0242 85.5912 60.5996 85.1426 60.5996 84.5845C60.5996 84.0297 61.0242 83.5812 61.5481 83.5812H66.4516C66.9755 83.5812 67.4001 84.0297 67.4001 84.5845Z" fill="#00C1D4"/>
<path d="M62.2637 86.9335C62.2637 87.8375 63.041 88.5702 63.9997 88.5702C64.9585 88.5702 65.7324 87.8375 65.7324 86.9335H62.2637Z" fill="#C09F74"/>
<path d="M65.0954 60.7727L64.5852 82.2561H66.1158L68.0231 60.7727H65.0954Z" fill="#C09F74"/>
<path d="M62.9006 60.7727H59.9729L61.8802 82.2561H63.4108L62.9006 60.7727Z" fill="#C09F74"/>
<path d="M68.7013 49.6406L67.4309 54.7975H68.8177L70.6017 49.6406H68.7013Z" fill="#C09F74"/>
<path d="M57.3945 49.6406L59.1785 54.7975H60.5653L59.2915 49.6406H57.3945Z" fill="#C09F74"/>
<path d="M63.0993 49.6406H60.8667L61.7125 54.7975H63.3184L63.0993 49.6406Z" fill="#C09F74"/>
<path d="M64.8935 49.6406L64.6743 54.7975H66.2837L67.1295 49.6406H64.8935Z" fill="#C09F74"/>
<path d="M60.6852 31.9991C60.6852 31.9991 57.7849 29.657 59.1546 26.3389C60.3188 23.514 64.5648 21.8772 64.6984 18.5831C64.6984 18.5831 65.9859 20.487 64.4347 22.7538C62.8835 25.0206 59.1546 28.1366 60.6852 31.9991Z" fill="#E1F2F0"/>
<path d="M73.817 46.2369C73.817 46.6615 73.4917 47.004 73.0945 47.004H54.9051C54.5045 47.004 54.1826 46.6615 54.1826 46.2369C54.1826 45.8123 54.5079 45.4699 54.9051 45.4699H73.0945C73.4917 45.4699 73.817 45.8123 73.817 46.2369Z" fill="#E1F2F0"/>
<path d="M70.3039 57.6738C70.3039 57.9957 70.0574 58.2593 69.7526 58.2593H58.2473C57.9426 58.2593 57.696 57.9991 57.696 57.6738C57.696 57.3519 57.9426 57.0883 58.2473 57.0883H69.7526C70.0574 57.0883 70.3039 57.3485 70.3039 57.6738Z" fill="#E1F2F0"/>
<path d="M66.3454 84.5845C66.3454 84.8242 66.1605 85.0228 65.9311 85.0228H62.0652C61.8358 85.0228 61.6509 84.8277 61.6509 84.5845C61.6509 84.3448 61.8358 84.1462 62.0652 84.1462H65.9311C66.1605 84.1497 66.3454 84.3448 66.3454 84.5845Z" fill="#E1F2F0"/>
<path d="M56.6446 98.7812C56.6446 98.7812 56.131 103.298 51.4912 104.596C51.4912 104.592 52.2274 100.312 56.6446 98.7812Z" fill="#C09F74"/>
<path d="M52.7753 97.7163C52.7753 97.7163 51.8679 101.401 47.5808 101.438C47.5808 101.438 48.6663 98.0005 52.7753 97.7163Z" fill="#E1F2F0"/>
<path d="M48.5977 96.8055C48.5977 96.8055 47.2931 99.6236 43.8723 98.9696C43.8689 98.9696 45.2762 96.3809 48.5977 96.8055Z" fill="#00C1D4"/>
<path d="M71.3516 98.7812C71.3516 98.7812 71.8652 103.298 76.505 104.596C76.505 104.592 75.7688 100.312 71.3516 98.7812Z" fill="#C09F74"/>
<path d="M75.2209 97.7163C75.2209 97.7163 76.1284 101.401 80.4155 101.438C80.4155 101.438 79.33 98.0005 75.2209 97.7163Z" fill="#E1F2F0"/>
<path d="M79.3984 96.8055C79.3984 96.8055 80.7031 99.6236 84.1238 98.9696C84.1273 98.9696 82.7199 96.3809 79.3984 96.8055Z" fill="#00C1D4"/>
<path d="M52.0356 42.1005C52.0356 42.1005 51.2241 37.3409 46.5535 36.2828C46.5535 36.2828 47.567 40.7788 52.0356 42.1005Z" fill="#00C1D4"/>
<path d="M47.9883 42.7374C47.9883 42.7374 46.1153 39.1009 41.9446 40.2001C41.9446 40.2001 43.9203 43.5318 47.9883 42.7374Z" fill="#E1F2F0"/>
<path d="M43.6772 44.8193C43.6772 44.8193 42.1637 42.2409 39.1162 43.3024C39.1162 43.3024 40.6948 45.648 43.6772 44.8193Z" fill="#C09F74"/>
<path d="M75.9607 42.1005C75.9607 42.1005 76.7722 37.3409 81.4428 36.2828C81.4428 36.2828 80.4293 40.7788 75.9607 42.1005Z" fill="#00C1D4"/>
<path d="M80.0081 42.7374C80.0081 42.7374 81.8811 39.1009 86.0518 40.2001C86.0518 40.2001 84.076 43.5318 80.0081 42.7374Z" fill="#E1F2F0"/>
<path d="M84.3191 44.8193C84.3191 44.8193 85.8326 42.2409 88.8801 43.3024C88.8767 43.3024 87.3016 45.648 84.3191 44.8193Z" fill="#C09F74"/>
<path d="M53.9293 77.9895C53.9156 77.9895 53.9019 77.9861 53.8848 77.9827C47.9472 76.185 42.9855 71.3397 41.2392 65.6316C40.1537 62.0773 39.7942 56.5061 44.2696 50.1474C44.3244 50.0686 44.4271 50.0549 44.4956 50.1166C44.5675 50.1748 44.5812 50.2878 44.5264 50.3631C41.0543 55.2974 40.0236 60.5364 41.5474 65.5186C43.2595 71.1137 48.1355 75.8734 53.9704 77.6403C54.056 77.6677 54.1073 77.7635 54.0834 77.8594C54.0662 77.9382 54.0012 77.9895 53.9293 77.9895Z" fill="#E1F2F0"/>
<path d="M51.7448 77.0136C51.7448 77.0136 50.2347 79.7255 45.095 77.6402C45.0984 77.6402 48.0843 75.1337 51.7448 77.0136Z" fill="#E1F2F0"/>
<path d="M51.6694 76.8321C51.6694 76.8321 48.7417 76.5685 48.6184 71.4082C48.6184 71.4082 51.9228 73.0073 51.6694 76.8321Z" fill="#E1F2F0"/>
<path d="M47.567 74.6441C47.567 74.6441 45.2694 76.7466 41.0576 73.1649C41.0576 73.1615 44.6907 71.7164 47.567 74.6441Z" fill="#E1F2F0"/>
<path d="M47.6151 74.4661C47.6151 74.4661 44.8723 73.473 46.1016 68.5627C46.1016 68.5593 48.8581 70.9117 47.6151 74.4661Z" fill="#E1F2F0"/>
<path d="M43.9956 70.7165C43.9956 70.7165 41.2392 72.1855 38.0649 67.6758C38.0649 67.6792 41.948 67.1759 43.9956 70.7165Z" fill="#E1F2F0"/>
<path d="M43.9717 70.6309C43.9717 70.6309 41.6672 68.6928 44.6359 64.3749C44.6359 64.3749 46.461 67.6313 43.9717 70.6309Z" fill="#E1F2F0"/>
<path d="M41.8008 66.3644C41.8008 66.3644 39.0101 66.967 37.3733 62.2177C37.3733 62.2177 40.9071 62.745 41.8008 66.3644Z" fill="#E1F2F0"/>
<path d="M41.6878 66.2685C41.6878 66.2685 40.1058 64.0736 43.6909 60.8719C43.6909 60.8719 44.5572 64.1318 41.6878 66.2685Z" fill="#E1F2F0"/>
<path d="M40.7837 61.8102C40.7837 61.8102 38.0649 61.7931 37.5444 57.0505C37.5444 57.0505 40.7152 58.2661 40.7837 61.8102Z" fill="#E1F2F0"/>
<path d="M40.8454 61.7417C40.8454 61.7417 40.0133 59.2694 44.2525 57.3176C44.2525 57.3176 44.1121 60.5775 40.8454 61.7417Z" fill="#E1F2F0"/>
<path d="M41.0133 57.9135C41.0133 57.9135 38.404 57.1636 39.2122 52.4587C39.2122 52.4587 41.9275 54.4859 41.0133 57.9135Z" fill="#E1F2F0"/>
<path d="M41.0885 57.7971C41.0885 57.7971 40.8214 55.2495 45.3037 54.2667C45.3037 54.2667 44.4716 57.3622 41.0885 57.7971Z" fill="#E1F2F0"/>
<path d="M42.1946 53.8797C42.1946 53.8797 39.9551 52.6196 41.746 48.4592C41.746 48.4592 43.7971 50.9178 42.1946 53.8797Z" fill="#E1F2F0"/>
<path d="M42.3452 53.8148C42.3452 53.8148 42.715 51.3493 47.1802 51.4966C47.1836 51.4966 45.6427 54.2154 42.3452 53.8148Z" fill="#E1F2F0"/>
<path d="M43.7457 51.2089C43.7457 51.2089 43.619 48.2059 47.2281 47.0005C47.2281 47.0005 47.276 50.4932 43.7457 51.2089Z" fill="#E1F2F0"/>
<path d="M74.067 77.9895C74.0807 77.9895 74.0944 77.9861 74.1115 77.9827C80.049 76.185 85.0107 71.3397 86.757 65.6316C87.8425 62.0773 88.2021 56.5061 83.7266 50.1474C83.6718 50.0686 83.5691 50.0549 83.5006 50.1166C83.4287 50.1748 83.415 50.2878 83.4698 50.3631C86.942 55.2974 87.9726 60.5364 86.4489 65.5186C84.7368 71.1137 79.8607 75.8734 74.0259 77.6403C73.9403 77.6677 73.8889 77.7635 73.9129 77.8594C73.93 77.9382 73.9951 77.9895 74.067 77.9895Z" fill="#E1F2F0"/>
<path d="M76.2517 77.0136C76.2517 77.0136 77.7618 79.7255 82.9015 77.6402C82.8981 77.6402 79.9122 75.1337 76.2517 77.0136Z" fill="#E1F2F0"/>
<path d="M76.3269 76.8321C76.3269 76.8321 79.2545 76.5685 79.3778 71.4082C79.3778 71.4082 76.0735 73.0073 76.3269 76.8321Z" fill="#E1F2F0"/>
<path d="M80.4292 74.6441C80.4292 74.6441 82.7268 76.7466 86.9386 73.1649C86.9386 73.1615 83.3055 71.7164 80.4292 74.6441Z" fill="#E1F2F0"/>
<path d="M80.3778 74.4661C80.3778 74.4661 83.1206 73.473 81.8913 68.5627C81.8948 68.5593 79.1383 70.9117 80.3778 74.4661Z" fill="#E1F2F0"/>
<path d="M84.0005 70.7165C84.0005 70.7165 86.757 72.1855 89.9312 67.6758C89.9312 67.6792 86.0482 67.1759 84.0005 70.7165Z" fill="#E1F2F0"/>
<path d="M84.0245 70.6309C84.0245 70.6309 86.329 68.6928 83.3602 64.3749C83.3602 64.3749 81.5351 67.6313 84.0245 70.6309Z" fill="#E1F2F0"/>
<path d="M86.1956 66.3644C86.1956 66.3644 88.9863 66.967 90.623 62.2177C90.623 62.2177 87.0893 62.745 86.1956 66.3644Z" fill="#E1F2F0"/>
<path d="M86.3086 66.2685C86.3086 66.2685 87.8905 64.0736 84.3054 60.8719C84.3054 60.8719 83.4391 64.1318 86.3086 66.2685Z" fill="#E1F2F0"/>
<path d="M87.2124 61.8102C87.2124 61.8102 89.9312 61.7931 90.4517 57.0505C90.4517 57.0505 87.2809 58.2661 87.2124 61.8102Z" fill="#E1F2F0"/>
<path d="M87.1507 61.7417C87.1507 61.7417 87.9828 59.2694 83.7437 57.3176C83.7437 57.3176 83.884 60.5775 87.1507 61.7417Z" fill="#E1F2F0"/>
<path d="M86.983 57.9135C86.983 57.9135 89.5923 57.1636 88.7842 52.4587C88.7842 52.4587 86.0688 54.4859 86.983 57.9135Z" fill="#E1F2F0"/>
<path d="M86.9078 57.7971C86.9078 57.7971 87.1749 55.2495 82.6926 54.2667C82.6926 54.2667 83.5247 57.3622 86.9078 57.7971Z" fill="#E1F2F0"/>
<path d="M85.8017 53.8797C85.8017 53.8797 88.0411 52.6196 86.2503 48.4592C86.2503 48.4592 84.1992 50.9178 85.8017 53.8797Z" fill="#E1F2F0"/>
<path d="M85.6511 53.8148C85.6511 53.8148 85.2813 51.3493 80.8162 51.4966C80.8127 51.4966 82.3536 54.2154 85.6511 53.8148Z" fill="#E1F2F0"/>
<path d="M84.2505 51.2089C84.2505 51.2089 84.3772 48.2059 80.7681 47.0005C80.7681 47.0005 80.7202 50.4932 84.2505 51.2089Z" fill="#E1F2F0"/>
<path d="M48.9095 63.7587C47.9097 66.9295 58.7678 74.5141 58.7678 74.5141C53.0151 67.2034 48.9095 63.7587 48.9095 63.7587Z" fill="#00C1D4"/>
<path d="M48.3172 57.2903C46.7763 60.2385 56.4634 67.3437 56.4634 67.3437C51.8818 60.5159 48.3172 57.2903 48.3172 57.2903Z" fill="#C09F74"/>
<path d="M55.3163 62.0123C55.3163 62.0123 48.67 55.0201 50.3718 52.9073C50.3718 52.9073 52.7208 55.9652 55.3163 62.0123Z" fill="#00C1D4"/>
<path d="M79.087 63.7587C80.0869 66.9295 69.2288 74.5141 69.2288 74.5141C74.978 67.2034 79.087 63.7587 79.087 63.7587Z" fill="#00C1D4"/>
<path d="M79.6794 57.2903C81.2203 60.2385 71.5332 67.3437 71.5332 67.3437C76.1148 60.5159 79.6794 57.2903 79.6794 57.2903Z" fill="#C09F74"/>
<path d="M72.6804 62.0123C72.6804 62.0123 79.3268 55.0201 77.625 52.9073C77.625 52.9073 75.276 55.9652 72.6804 62.0123Z" fill="#00C1D4"/>
<path d="M38.9794 80.1981C39.7635 79.4722 40.5442 78.3422 40.623 76.6849C40.623 76.6849 38.8218 77.4758 37.8528 79.4037C37.9932 78.3182 37.8699 76.9109 36.8427 75.5857C36.8427 75.5857 35.4353 78.551 37.2912 81.2938C37.2912 81.2938 40.4278 82.5265 42.7117 80.0234C42.7152 80.0269 40.8969 79.4242 38.9794 80.1981Z" fill="#00C1D4"/>
<path d="M89.017 80.1981C88.2329 79.4722 87.4522 78.3422 87.3734 76.6849C87.3734 76.6849 89.1746 77.4758 90.1436 79.4037C90.0032 78.3182 90.1265 76.9109 91.1538 75.5857C91.1538 75.5857 92.5611 78.551 90.7052 81.2938C90.7052 81.2938 87.5686 82.5265 85.2847 80.0234C85.2812 80.0269 87.0995 79.4242 89.017 80.1981Z" fill="#00C1D4"/>
</g>
<defs>
<clipPath id="clip0_1_281">
<rect width="128" height="128" fill="white"/>
</clipPath>
</defs>
</svg>
